<svg width="16.000000" height="16.000000" viewBox="0 0 16 16" fill="none" xmlns="http://www.w3.org/2000/svg" xmlns:xlink="http://www.w3.org/1999/xlink">
	<desc>
			Created with Pixso.
	</desc>
	<defs>
		<clipPath id="clip124_14">
			<rect id="add_circle_outline" width="16.000000" height="16.000000" fill="white" fill-opacity="0"/>
		</clipPath>
	</defs>
	<g clip-path="url(#clip124_14)">
		<path id="Subtract" d="M1.33331 8C1.33331 4.32031 4.32001 1.3335 8 1.3335C11.68 1.3335 14.6666 4.32031 14.6666 8C14.6666 11.6802 11.68 14.667 8 14.667C4.32001 14.667 1.33331 11.6802 1.33331 8ZM7.33331 5.3335C7.33331 4.9668 7.6333 4.66699 7.99994 4.66699C8.36664 4.66699 8.66663 4.9668 8.66663 5.3335L8.66663 7.3335L10.6666 7.3335C11.0333 7.3335 11.3333 7.63379 11.3333 8.00049C11.3333 8.36719 11.0333 8.66699 10.6666 8.66699L8.66663 8.66699L8.66663 10.667C8.66663 11.0337 8.36664 11.3335 7.99994 11.3335C7.6333 11.3335 7.33331 11.0337 7.33331 10.667L7.33331 8.66699L5.33331 8.66699C4.96661 8.66699 4.66663 8.36719 4.66663 8.00049C4.66663 7.63379 4.96661 7.3335 5.33331 7.3335L7.33331 7.3335L7.33331 5.3335Z" clip-rule="evenodd" fill="#9873FF" fill-opacity="1.000000" fill-rule="evenodd"/>
	</g>
</svg>
